<svg width="120" height="40" viewBox="0 0 120 40" xmlns="http://www.w3.org/2000/svg">
  <defs>
    <linearGradient id="appleGradient" x1="0%" y1="0%" x2="0%" y2="100%">
      <stop offset="0%" style="stop-color:#000;stop-opacity:1" />
      <stop offset="100%" style="stop-color:#1a1a1a;stop-opacity:1" />
    </linearGradient>
  </defs>
  <rect width="120" height="40" rx="6" fill="url(#appleGradient)"/>
  <g fill="#fff">
    <!-- Apple logo -->
    <path d="M16.5 12.3c-1 0-2.4-.8-3.2-1.9-.9-1.1-1.6-2.7-1.5-4.3 0-1.2.4-2.2 1-3 .7-.8 1.6-1.2 2.6-1.2 1 0 2.3.8 3.1 1.9.8 1.1 1.6 2.7 1.5 4.3 0 1.1-.4 2.1-1 2.9-.7.8-1.7 1.4-2.5 1.3zm-3.9 7.5h7.8v12.4h-7.8V19.8z"/>
    <!-- "Add to Apple Wallet" text -->
    <path d="M24.5 26.2c0-3.1 2.5-5.3 6-5.3.6 0 1.3.1 1.9.3v-.7c0-1.8 1.3-3.1 3.3-3.1.5 0 .9.1 1.3.2v-3.6c-.4 0-.8-.1-1.3-.1-1.8 0-3.1 1-3.7 2.4h-.3v-2.1h-3.6v12.8c0 2.1-1 3.4-2.7 3.4-1.5 0-2.5-1-2.8-2.1h-3.2c.3 2.8 2.6 4.7 6 4.7 3.7 0 6.1-2.3 6.1-5.6v-.5h-5.6c-.1 0-.2 0-.2.1zm5.5-3.7c-.4-.1-.8-.1-1.3-.1-1.2 0-2.1.5-2.1 1.3v.1h3.4v-1.3z"/>
  </g>
</svg>
