<svg width="120" height="40" viewBox="0 0 120 40" xmlns="http://www.w3.org/2000/svg">
  <rect width="120" height="40" rx="6" fill="#1a73e8"/>
  <g fill="#fff">
    <!-- Google "G" logo -->
    <path d="M16.5 20c0-3.8 3.2-6.9 7.1-6.9 1.2 0 2.3.3 3.4.8l-3.4 2.6c-.6-.3-1.2-.5-2-.5-1.8 0-3.2 1.4-3.6 3.2l3.6 2.8c.7-.4 1.3-.9 1.9-1.5 0 0 0 0 0 0 0 0 0 0 0 0v-.5H16.5z"/>
    <path d="M23.6 15.1l-3.4-2.6c-1.1-.5-2.2-.8-3.4-.8-3.9 0-7.1 3.1-7.1 6.9 0 3.8 3.2 6.9 7.1 6.9 1.2 0 2.3-.3 3.4-.8l3.4-2.6c-.6-.6-1.2-1.1-1.9-1.5l-3.6-2.8c.4-1.8 1.8-3.2 3.6-3.2.8 0 1.4.2 2 .5z"/>
    <!-- "Add to Google Wallet" text -->
    <text x="28" y="23" font-family="Arial, sans-serif" font-size="11" font-weight="bold" fill="#fff">Add to Google Wallet</text>
  </g>
</svg>
